<svg enable-background="new 0 0 56 58" height="512" viewBox="0 0 56 58" width="512" xmlns="http://www.w3.org/2000/svg"><path d="m40 53c-.552 0-1-.447-1-1v-3c0-.552-.448-1-1-1-2.206 0-4-1.794-4-4s-1.794-4-4-4h-3c-.552 0-1-.447-1-1s.448-1 1-1h3c3.308 0 6 2.691 6 6 0 1.103.897 2 2 2 1.654 0 3 1.346 3 3v3c0 .553-.448 1-1 1z" fill="#ebba16"/><path d="m53 44c-.552 0-1-.447-1-1v-3c0-.552-.448-1-1-1h-5.525c-2.079 0-3.475-1.607-3.475-4 0-1.103-.897-2-2-2h-13c-.552 0-1-.447-1-1s.448-1 1-1h13c2.206 0 4 1.794 4 4 0 .602.144 2 1.475 2h5.525c1.654 0 3 1.346 3 3v3c0 .553-.448 1-1 1z" fill="#ebba16"/><path d="m41 27h-14c-.552 0-1-.447-1-1s.448-1 1-1h14c1.103 0 2-.897 2-2 0-2.206 1.794-4 4-4h4c.552 0 1-.448 1-1v-3c0-.553.448-1 1-1s1 .447 1 1v3c0 1.654-1.346 3-3 3h-4c-1.103 0-2 .897-2 2 0 2.206-1.794 4-4 4z" fill="#ebba16"/><path d="m31 19h-4c-.552 0-1-.447-1-1s.448-1 1-1h4c1.654 0 3-1.346 3-3 0-2.206 1.794-4 4-4h3c.552 0 1-.448 1-1v-3c0-.553.448-1 1-1s1 .447 1 1v3c0 1.654-1.346 3-3 3h-3c-1.103 0-2 .897-2 2 0 2.757-2.243 5-5 5z" fill="#ebba16"/><path d="m20.52 0c-2.896 0-4.919 2.035-5.75 4.648-.444-.118-1.329-.34-1.81-.34-2.982 0-5.4 2.411-5.4 5.385 0 1.006.295 1.937.776 2.742-.526-.368-1.164-.589-1.856-.589-1.789 0-3.897 2.154-2.48 4.154-1.976.396-4 2.374-4 4.462 0 1.635.924 3.039 2.269 3.769-1.345.73-2.269 2.134-2.269 3.769 0 1.876 1.21 3.455 2.887 4.046-1.091.782-1.807 2.05-1.807 3.492 0 1.671.965 3.104 2.36 3.818-.126.502-.2 1.025-.2 1.566 0 3.569 2.901 6.462 6.48 6.462 0 4.758 3.868 8.615 8.64 8.615 4.414 0 8.119-3.278 8.64-7.538v-42c0-3.568-2.901-6.461-6.48-6.461z" fill="#dd5e79"/><g fill="#bc4b69"><path d="m15 47c-1.738 0-3-1.262-3-3s1.262-3 3-3c.552 0 1 .447 1 1s-.448 1-1 1c-.636 0-1 .364-1 1s.364 1 1 1c.552 0 1 .447 1 1s-.448 1-1 1z"/><path d="m19 52c-.552 0-1-.447-1-1s.448-1 1-1c.636 0 1-.364 1-1s-.364-1-1-1c-.552 0-1-.447-1-1s.448-1 1-1c1.738 0 3 1.262 3 3s-1.262 3-3 3z"/><path d="m18 34c-2.757 0-5-2.243-5-5 0-.553.448-1 1-1s1 .447 1 1c0 1.654 1.346 3 3 3s3-1.346 3-3-1.346-3-3-3c-.552 0-1-.447-1-1s.448-1 1-1c2.757 0 5 2.243 5 5s-2.243 5-5 5z"/><path d="m17 21c-2.206 0-4-1.794-4-4s1.794-4 4-4 4 1.794 4 4c0 .553-.448 1-1 1s-1-.447-1-1c0-1.103-.897-2-2-2s-2 .897-2 2 .897 2 2 2c.552 0 1 .447 1 1s-.448 1-1 1z"/><path d="m19 10c0-2.073-1.706-4.985-3.651-6.694-.226.426-.428.87-.579 1.342-.314-.083-.847-.217-1.304-.289 1.654 1.138 3.534 4 3.534 5.641 0 .553.448 1 1 1s1-.447 1-1z"/><path d="m7 20c0 .553.448 1 1 1s1-.447 1-1c0-2.337-2.756-3.902-5.311-4.593.075.198.171.396.311.593-.753.151-1.512.534-2.165 1.063 2.182.299 5.165 1.627 5.165 2.937z"/><path d="m10 33c-2.913 0-6.195 2.439-7.875 5.322.366.422.811.776 1.315 1.034-.1.399-.155.815-.178 1.239.922-2.713 4.18-5.595 6.738-5.595.552 0 1-.447 1-1s-.448-1-1-1z"/><path d="m19 37c-.552 0-1 .447-1 1s.448 1 1 1c4.411 0 8 3.589 8 8v-5.974c-1.825-2.438-4.727-4.026-8-4.026z"/></g><circle cx="53" cy="12" fill="#7383bf" r="3"/><circle cx="40" cy="55" fill="#7383bf" r="3"/><circle cx="53" cy="46" fill="#7383bf" r="3"/><circle cx="43" cy="3" fill="#7383bf" r="3"/></svg>