<?xml version="1.0" encoding="iso-8859-1"?>
<!-- Generator: Adobe Illustrator 19.0.0, SVG Export Plug-In . SVG Version: 6.00 Build 0)  -->
<svg version="1.1" id="Capa_1" xmlns="http://www.w3.org/2000/svg" xmlns:xlink="http://www.w3.org/1999/xlink" x="0px" y="0px"
	 viewBox="0 0 512 512" style="enable-background:new 0 0 512 512;" xml:space="preserve">
<path style="fill:#E7ECED;" d="M370.759,494.345H141.241c-9.754,0-17.655-7.901-17.655-17.655l0,0
	c0-9.754,7.901-17.655,17.655-17.655h229.517c9.754,0,17.655,7.901,17.655,17.655l0,0
	C388.414,486.444,380.513,494.345,370.759,494.345z"/>
<g>
	<path style="fill:#AFB6BB;" d="M300.138,379.586h-88.276c0,39.036-13.93,79.448-52.966,79.448h194.207
		C314.068,459.034,300.138,418.622,300.138,379.586z"/>
	<path style="fill:#AFB6BB;" d="M441.379,17.655H70.621H26.492C11.864,17.655,0,29.519,0,44.147v273.646h70.621h132.414h105.931
		h132.414H512V44.147c0-14.627-11.864-26.492-26.492-26.492H441.379z"/>
</g>
<path style="fill:#E7ECED;" d="M485.508,388.414H26.492C11.864,388.414,0,376.549,0,361.922v-44.129h512v44.129
	C512,376.549,500.136,388.414,485.508,388.414z"/>
<path style="fill:#AFB6BB;" d="M282.483,361.931h-52.966c-4.873,0-8.828-3.955-8.828-8.828c0-4.873,3.955-8.828,8.828-8.828h52.966
	c4.873,0,8.828,3.955,8.828,8.828C291.31,357.976,287.356,361.931,282.483,361.931z"/>
<rect x="35.31" y="52.966" style="fill:#28384C;" width="441.379" height="264.828"/>
<path style="fill:#25AE88;" d="M176.552,238.345c-14.627,0-27.869-5.932-37.455-15.51l-31.214,31.214
	c17.576,17.567,41.852,28.434,68.67,28.434s51.094-10.867,68.661-28.442l-31.214-31.214
	C204.42,232.413,191.179,238.345,176.552,238.345z"/>
<path style="fill:#EBBA16;" d="M176.552,88.276v44.138c29.255,0,52.966,23.711,52.966,52.966c0,14.627-5.932,27.869-15.51,37.455
	l31.214,31.214c17.567-17.576,28.434-41.852,28.434-68.67C273.655,131.752,230.179,88.276,176.552,88.276z"/>
<path style="fill:#366DB6;" d="M123.586,185.379c0-29.255,23.711-52.966,52.966-52.966V88.276
	c-53.628,0-97.103,43.476-97.103,97.103c0,26.818,10.867,51.094,28.442,68.661l31.214-31.214
	C129.518,213.248,123.586,200.007,123.586,185.379z"/>
<path style="fill:#75348B;" d="M423.724,141.241H317.793c-4.873,0-8.828-3.955-8.828-8.828v-35.31c0-4.873,3.955-8.828,8.828-8.828
	h105.931c4.873,0,8.828,3.955,8.828,8.828v35.31C432.552,137.287,428.597,141.241,423.724,141.241z"/>
<path style="fill:#7383BF;" d="M353.103,282.483h-35.31c-4.873,0-8.828-3.955-8.828-8.828v-35.31c0-4.873,3.955-8.828,8.828-8.828
	h35.31c4.873,0,8.828,3.955,8.828,8.828v35.31C361.931,278.528,357.976,282.483,353.103,282.483z"/>
<path style="fill:#25AE88;" d="M423.724,282.483h-35.31c-4.873,0-8.828-3.955-8.828-8.828v-35.31c0-4.873,3.955-8.828,8.828-8.828
	h35.31c4.873,0,8.828,3.955,8.828,8.828v35.31C432.552,278.528,428.597,282.483,423.724,282.483z"/>
<path style="fill:#2998C0;" d="M388.414,176.552h-70.621c-4.873,0-8.828-3.955-8.828-8.828s3.955-8.828,8.828-8.828h70.621
	c4.873,0,8.828,3.955,8.828,8.828S393.287,176.552,388.414,176.552z"/>
<path style="fill:#CB465F;" d="M423.724,211.862H317.793c-4.873,0-8.828-3.955-8.828-8.828c0-4.873,3.955-8.828,8.828-8.828h105.931
	c4.873,0,8.828,3.955,8.828,8.828C432.552,207.907,428.597,211.862,423.724,211.862z"/>
<g>
</g>
<g>
</g>
<g>
</g>
<g>
</g>
<g>
</g>
<g>
</g>
<g>
</g>
<g>
</g>
<g>
</g>
<g>
</g>
<g>
</g>
<g>
</g>
<g>
</g>
<g>
</g>
<g>
</g>
</svg>
