<svg height="512pt" viewBox="-22 0 512 512" width="512pt" xmlns="http://www.w3.org/2000/svg"><g fill="#475a70"><path d="m52.964844 467.863281h52.964844v44.136719h-52.964844zm0 0"/><path d="m52.964844 203.035156h52.964844v52.964844h-52.964844zm0 0"/><path d="m61.792969 0h35.308593v52.964844h-35.308593zm0 0"/><path d="m60.53125 48.417969c-2.507812-4.183594-7.925781-5.523438-12.113281-3.019531l-44.136719 26.484374c-.308594.1875-.484375.476563-.757812.6875-.488282.371094-.929688.75-1.324219 1.210938-.371094.441406-.664063.898438-.9375 1.394531-.273438.484375-.519531.960938-.695313 1.5-.195312.574219-.292968 1.15625-.363281 1.765625-.042969.34375-.203125.652344-.203125 1.007813v158.894531c0 4.875 3.953125 8.828125 8.828125 8.828125 4.871094 0 8.828125-3.953125 8.828125-8.828125v-153.898438l39.855469-23.914062c4.175781-2.507812 5.535156-7.925781 3.019531-12.113281zm0 0"/></g><path d="m167.722656 61.792969h300.140625v388.414062h-300.140625zm0 0" fill="#ebba16"/><path d="m203.035156 105.929688h229.515625v141.242187h-229.515625zm0 0" fill="#dd352e"/><path d="m203.035156 282.484375h229.515625v123.585937h-229.515625zm0 0" fill="#fff"/><path d="m439.03125 512h-242.476562c-15.925782 0-28.832032-12.90625-28.832032-28.832031v-41.789063h300.140625v41.789063c0 15.925781-12.90625 28.832031-28.832031 28.832031zm0 0" fill="#e7eced"/><path d="m344.277344 485.515625h-52.96875c-4.871094 0-8.824219-3.953125-8.824219-8.824219 0-4.875 3.953125-8.828125 8.824219-8.828125h52.96875c4.871094 0 8.824218 3.953125 8.824218 8.828125 0 4.871094-3.953124 8.824219-8.824218 8.824219zm0 0" fill="#afb6bb"/><path d="m423.722656 485.515625h-35.308594c-4.875 0-8.828124-3.953125-8.828124-8.824219 0-4.875 3.953124-8.828125 8.828124-8.828125h35.308594c4.875 0 8.828125 3.953125 8.828125 8.828125 0 4.871094-3.953125 8.824219-8.828125 8.824219zm0 0" fill="#afb6bb"/><path d="m335.449219 335.449219h-17.65625c-4.871094 0-8.828125-3.957031-8.828125-8.828125 0-4.875 3.957031-8.828125 8.828125-8.828125h17.65625c4.871093 0 8.828125 3.953125 8.828125 8.828125 0 4.871094-3.957032 8.828125-8.828125 8.828125zm0 0" fill="#ed8a19"/><path d="m397.242188 335.449219h-26.484376c-4.871093 0-8.828124-3.957031-8.828124-8.828125 0-4.875 3.957031-8.828125 8.828124-8.828125h26.484376c4.871093 0 8.828124 3.953125 8.828124 8.828125 0 4.871094-3.957031 8.828125-8.828124 8.828125zm0 0" fill="#366db6"/><path d="m397.242188 370.757812h-17.65625c-4.871094 0-8.828126-3.953124-8.828126-8.828124 0-4.871094 3.957032-8.828126 8.828126-8.828126h17.65625c4.871093 0 8.828124 3.957032 8.828124 8.828126 0 4.875-3.957031 8.828124-8.828124 8.828124zm0 0" fill="#57abc1"/><path d="m344.277344 370.757812h-26.484375c-4.871094 0-8.828125-3.953124-8.828125-8.828124 0-4.871094 3.957031-8.828126 8.828125-8.828126h26.484375c4.871094 0 8.824218 3.957032 8.824218 8.828126 0 4.875-3.953124 8.828124-8.824218 8.828124zm0 0" fill="#cb465f"/><path d="m247.171875 485.515625h-35.308594c-4.875 0-8.828125-3.953125-8.828125-8.824219 0-4.875 3.953125-8.828125 8.828125-8.828125h35.308594c4.875 0 8.828125 3.953125 8.828125 8.828125 0 4.871094-3.953125 8.824219-8.828125 8.824219zm0 0" fill="#afb6bb"/><path d="m196.554688 0h242.484374c15.917969 0 28.824219 12.90625 28.824219 28.832031v41.789063h-300.140625v-41.789063c0-15.925781 12.90625-28.832031 28.832032-28.832031zm0 0" fill="#e7eced"/><path d="m361.929688 44.136719h-88.273438c-4.875 0-8.828125-3.953125-8.828125-8.828125 0-4.871094 3.953125-8.824219 8.828125-8.824219h88.273438c4.875 0 8.828124 3.953125 8.828124 8.824219 0 4.875-3.953124 8.828125-8.828124 8.828125zm0 0" fill="#afb6bb"/><path d="m256 211.863281c-2.261719 0-4.519531-.867187-6.242188-2.585937-3.449218-3.453125-3.449218-9.03125 0-12.484375l35.3125-35.308594c3.449219-3.453125 9.03125-3.453125 12.480469 0 3.453125 3.449219 3.453125 9.027344 0 12.480469l-35.308593 35.3125c-1.722657 1.71875-3.980469 2.585937-6.242188 2.585937zm0 0" fill="#fff"/><path d="m326.621094 211.863281c-2.261719 0-4.519532-.867187-6.242188-2.585937l-35.308594-35.3125c-3.453124-3.453125-3.453124-9.03125 0-12.480469 3.449219-3.453125 9.03125-3.453125 12.480469 0l35.3125 35.308594c3.449219 3.453125 3.449219 9.03125 0 12.484375-1.722656 1.71875-3.984375 2.585937-6.242187 2.585937zm0 0" fill="#fff"/><path d="m308.964844 194.207031c-2.257813 0-4.519532-.867187-6.242188-2.585937-3.449218-3.453125-3.449218-9.03125 0-12.484375l35.3125-35.308594c3.453125-3.453125 9.03125-3.453125 12.480469 0 3.453125 3.453125 3.453125 9.03125 0 12.480469l-35.308594 35.3125c-1.722656 1.71875-3.980469 2.585937-6.242187 2.585937zm0 0" fill="#fff"/><path d="m379.585938 194.207031c-2.257813 0-4.519532-.867187-6.242188-2.585937l-35.308594-35.3125c-3.453125-3.449219-3.453125-9.027344 0-12.480469s9.03125-3.453125 12.480469 0l35.3125 35.308594c3.449219 3.453125 3.449219 9.03125 0 12.484375-1.722656 1.71875-3.980469 2.585937-6.242187 2.585937zm0 0" fill="#fff"/><path d="m203.035156 282.484375h79.449219v123.585937h-79.449219zm0 0" fill="#23a24d"/><path d="m44.136719 35.308594h70.621093v176.554687h-70.621093zm0 0" fill="#28384c"/><path d="m44.136719 247.171875h70.621093v229.519531h-70.621093zm0 0" fill="#28384c"/><path d="m79.449219 432.550781c-4.875 0-8.828125-3.953125-8.828125-8.828125v-114.757812c0-4.871094 3.953125-8.828125 8.828125-8.828125 4.871093 0 8.828125 3.957031 8.828125 8.828125v114.757812c0 4.875-3.957032 8.828125-8.828125 8.828125zm0 0" fill="#ebba16"/><path d="m79.449219 185.378906c-4.875 0-8.828125-3.953125-8.828125-8.828125v-105.929687c0-4.875 3.953125-8.828125 8.828125-8.828125 4.871093 0 8.828125 3.953125 8.828125 8.828125v105.929687c0 4.875-3.957032 8.828125-8.828125 8.828125zm0 0" fill="#ebba16"/></svg>