<?xml version="1.0" encoding="iso-8859-1"?>
<!-- Generator: Adobe Illustrator 19.0.0, SVG Export Plug-In . SVG Version: 6.00 Build 0)  -->
<svg version="1.1" id="Capa_1" xmlns="http://www.w3.org/2000/svg" xmlns:xlink="http://www.w3.org/1999/xlink" x="0px" y="0px"
	 viewBox="0 0 512 512" style="enable-background:new 0 0 512 512;" xml:space="preserve">
<path style="fill:#E7ECED;" d="M441.379,8.828H70.621H26.492C11.864,8.828,0,20.692,0,35.319v308.957h70.621h132.414h105.931
	h132.414H512V35.319c0-14.627-11.864-26.492-26.492-26.492H441.379z"/>
<path style="fill:#AFB6BB;" d="M485.508,397.241H26.492C11.864,397.241,0,385.377,0,370.75v-44.129h512v44.129
	C512,385.377,500.136,397.241,485.508,397.241z"/>
<path style="fill:#FFFFFF;" d="M282.483,370.759h-52.966c-4.873,0-8.828-3.955-8.828-8.828s3.955-8.828,8.828-8.828h52.966
	c4.873,0,8.828,3.955,8.828,8.828S287.356,370.759,282.483,370.759z"/>
<rect x="35.31" y="44.138" style="fill:#EBBA16;" width="441.379" height="282.483"/>
<path style="fill:#AFB6BB;" d="M370.759,503.172H141.241c-9.754,0-17.655-7.901-17.655-17.655l0,0
	c0-9.754,7.901-17.655,17.655-17.655h229.517c9.754,0,17.655,7.901,17.655,17.655l0,0
	C388.414,495.272,380.513,503.172,370.759,503.172z"/>
<path style="fill:#6C797A;" d="M300.138,397.241h-88.276c0,39.036-13.93,70.621-52.966,70.621h194.207
	C314.068,467.862,300.138,436.277,300.138,397.241z"/>
<circle style="fill:#FFFFFF;" cx="256" cy="185.379" r="105.931"/>
<g>
	<path style="fill:#DD352E;" d="M211.862,220.69c-2.26,0-4.52-0.865-6.241-2.586l-26.483-26.483c-3.452-3.452-3.452-9.031,0-12.482
		l26.483-26.483c3.443-3.452,9.039-3.452,12.482,0c3.452,3.452,3.452,9.031,0,12.482l-20.242,20.242l20.242,20.242
		c3.452,3.452,3.452,9.031,0,12.482C216.382,219.825,214.122,220.69,211.862,220.69z"/>
	<path style="fill:#DD352E;" d="M300.138,220.69c-2.26,0-4.52-0.865-6.241-2.586c-3.452-3.452-3.452-9.031,0-12.482l20.242-20.242
		l-20.242-20.242c-3.452-3.452-3.452-9.031,0-12.482c3.443-3.452,9.039-3.452,12.482,0l26.483,26.483
		c3.452,3.452,3.452,9.031,0,12.482l-26.483,26.483C304.658,219.825,302.398,220.69,300.138,220.69z"/>
	<path style="fill:#DD352E;" d="M238.345,247.172c-0.927,0-1.871-0.15-2.79-0.459c-4.626-1.545-7.124-6.541-5.588-11.167
		l35.31-105.931c1.545-4.617,6.568-7.115,11.167-5.579c4.626,1.545,7.124,6.541,5.588,11.167l-35.31,105.931
		C245.486,244.833,242.044,247.172,238.345,247.172z"/>
</g>
<g>
	<path style="fill:#AD871C;" d="M70.621,123.586c-4.873,0-8.828-3.955-8.828-8.828v-35.31c0-4.873,3.955-8.828,8.828-8.828h35.31
		c4.873,0,8.828,3.955,8.828,8.828c0,4.873-3.955,8.828-8.828,8.828H79.448v26.483C79.448,119.631,75.494,123.586,70.621,123.586z"
		/>
	<path style="fill:#AD871C;" d="M441.379,300.138h-35.31c-4.873,0-8.828-3.955-8.828-8.828c0-4.873,3.955-8.828,8.828-8.828h26.483
		V256c0-4.873,3.955-8.828,8.828-8.828s8.828,3.955,8.828,8.828v35.31C450.207,296.183,446.252,300.138,441.379,300.138z"/>
</g>
<g>
</g>
<g>
</g>
<g>
</g>
<g>
</g>
<g>
</g>
<g>
</g>
<g>
</g>
<g>
</g>
<g>
</g>
<g>
</g>
<g>
</g>
<g>
</g>
<g>
</g>
<g>
</g>
<g>
</g>
</svg>
