<?xml version="1.0" encoding="iso-8859-1"?>
<!-- Generator: Adobe Illustrator 19.0.0, SVG Export Plug-In . SVG Version: 6.00 Build 0)  -->
<svg version="1.1" id="Capa_1" xmlns="http://www.w3.org/2000/svg" xmlns:xlink="http://www.w3.org/1999/xlink" x="0px" y="0px"
	 viewBox="0 0 512 512" style="enable-background:new 0 0 512 512;" xml:space="preserve">
<path style="fill:#3D6F44;" d="M467.871,0h-88.285v35.31H132.414V0H44.129C19.756,0,0,19.756,0,44.129v423.742
	C0,492.244,19.756,512,44.129,512h88.285v-35.31h247.172V512h88.285C492.244,512,512,492.244,512,467.871V44.129
	C512,19.756,492.244,0,467.871,0z"/>
<rect y="176.552" style="fill:#EBBA16;" width="52.966" height="158.897"/>
<g>
	<rect x="150.069" y="150.069" style="fill:#E7ECED;" width="211.862" height="194.207"/>
	<path style="fill:#E7ECED;" d="M203.034,406.069c-4.873,0-8.828-3.955-8.828-8.828v-17.655c0-4.873,3.955-8.828,8.828-8.828
		c4.873,0,8.828,3.955,8.828,8.828v17.655C211.862,402.114,207.907,406.069,203.034,406.069z"/>
	<path style="fill:#E7ECED;" d="M308.966,406.069c-4.873,0-8.828-3.955-8.828-8.828v-17.655c0-4.873,3.955-8.828,8.828-8.828
		s8.828,3.955,8.828,8.828v17.655C317.793,402.114,313.838,406.069,308.966,406.069z"/>
	<path style="fill:#E7ECED;" d="M273.655,406.069c-4.873,0-8.828-3.955-8.828-8.828v-17.655c0-4.873,3.955-8.828,8.828-8.828
		c4.873,0,8.828,3.955,8.828,8.828v17.655C282.483,402.114,278.528,406.069,273.655,406.069z"/>
	<path style="fill:#E7ECED;" d="M238.345,406.069c-4.873,0-8.828-3.955-8.828-8.828v-17.655c0-4.873,3.955-8.828,8.828-8.828
		c4.873,0,8.828,3.955,8.828,8.828v17.655C247.172,402.114,243.218,406.069,238.345,406.069z"/>
	<path style="fill:#E7ECED;" d="M114.759,203.034H97.103c-4.873,0-8.828-3.955-8.828-8.828s3.955-8.828,8.828-8.828h17.655
		c4.873,0,8.828,3.955,8.828,8.828S119.631,203.034,114.759,203.034z"/>
	<path style="fill:#E7ECED;" d="M114.759,308.966H97.103c-4.873,0-8.828-3.955-8.828-8.828c0-4.873,3.955-8.828,8.828-8.828h17.655
		c4.873,0,8.828,3.955,8.828,8.828C123.586,305.011,119.631,308.966,114.759,308.966z"/>
	<path style="fill:#E7ECED;" d="M114.759,273.655H97.103c-4.873,0-8.828-3.955-8.828-8.828S92.231,256,97.103,256h17.655
		c4.873,0,8.828,3.955,8.828,8.828S119.631,273.655,114.759,273.655z"/>
	<path style="fill:#E7ECED;" d="M114.759,238.345H97.103c-4.873,0-8.828-3.955-8.828-8.828s3.955-8.828,8.828-8.828h17.655
		c4.873,0,8.828,3.955,8.828,8.828S119.631,238.345,114.759,238.345z"/>
	<path style="fill:#E7ECED;" d="M308.966,123.586c-4.873,0-8.828-3.955-8.828-8.828V97.103c0-4.873,3.955-8.828,8.828-8.828
		s8.828,3.955,8.828,8.828v17.655C317.793,119.631,313.838,123.586,308.966,123.586z"/>
	<path style="fill:#E7ECED;" d="M203.034,123.586c-4.873,0-8.828-3.955-8.828-8.828V97.103c0-4.873,3.955-8.828,8.828-8.828
		c4.873,0,8.828,3.955,8.828,8.828v17.655C211.862,119.631,207.907,123.586,203.034,123.586z"/>
	<path style="fill:#E7ECED;" d="M238.345,123.586c-4.873,0-8.828-3.955-8.828-8.828V97.103c0-4.873,3.955-8.828,8.828-8.828
		c4.873,0,8.828,3.955,8.828,8.828v17.655C247.172,119.631,243.218,123.586,238.345,123.586z"/>
	<path style="fill:#E7ECED;" d="M273.655,123.586c-4.873,0-8.828-3.955-8.828-8.828V97.103c0-4.873,3.955-8.828,8.828-8.828
		c4.873,0,8.828,3.955,8.828,8.828v17.655C282.483,119.631,278.528,123.586,273.655,123.586z"/>
	<path style="fill:#E7ECED;" d="M414.897,308.966h-17.655c-4.873,0-8.828-3.955-8.828-8.828c0-4.873,3.955-8.828,8.828-8.828h17.655
		c4.873,0,8.828,3.955,8.828,8.828C423.724,305.011,419.769,308.966,414.897,308.966z"/>
	<path style="fill:#E7ECED;" d="M414.897,203.034h-17.655c-4.873,0-8.828-3.955-8.828-8.828s3.955-8.828,8.828-8.828h17.655
		c4.873,0,8.828,3.955,8.828,8.828S419.769,203.034,414.897,203.034z"/>
	<path style="fill:#E7ECED;" d="M414.897,238.345h-17.655c-4.873,0-8.828-3.955-8.828-8.828s3.955-8.828,8.828-8.828h17.655
		c4.873,0,8.828,3.955,8.828,8.828S419.769,238.345,414.897,238.345z"/>
	<path style="fill:#E7ECED;" d="M414.897,273.655h-17.655c-4.873,0-8.828-3.955-8.828-8.828s3.955-8.828,8.828-8.828h17.655
		c4.873,0,8.828,3.955,8.828,8.828S419.769,273.655,414.897,273.655z"/>
</g>
<g>
	<rect x="35.31" y="35.31" style="fill:#294C2C;" width="35.31" height="35.31"/>
	<rect x="441.379" y="35.31" style="fill:#294C2C;" width="35.31" height="35.31"/>
	<rect x="35.31" y="441.379" style="fill:#294C2C;" width="35.31" height="35.31"/>
	<rect x="441.379" y="441.379" style="fill:#294C2C;" width="35.31" height="35.31"/>
</g>
<ellipse transform="matrix(-0.5516 -0.8341 0.8341 -0.5516 191.0429 597.0345)" style="fill:#366DB6;" cx="255.997" cy="247.167" rx="44.932" ry="67.848"/>
<path style="fill:#FFFFFF;" d="M273.655,256h-35.31c-4.873,0-8.828-3.955-8.828-8.828c0-4.873,3.955-8.828,8.828-8.828h35.31
	c4.873,0,8.828,3.955,8.828,8.828C282.483,252.045,278.528,256,273.655,256z"/>
<g>
	<path style="fill:#294C2C;" d="M467.862,141.241c-4.873,0-8.828-3.955-8.828-8.828v-26.483c0-4.873,3.955-8.828,8.828-8.828
		s8.828,3.955,8.828,8.828v26.483C476.69,137.287,472.735,141.241,467.862,141.241z"/>
	<path style="fill:#294C2C;" d="M467.862,141.241h-26.483c-4.873,0-8.828-3.955-8.828-8.828c0-4.873,3.955-8.828,8.828-8.828h26.483
		c4.873,0,8.828,3.955,8.828,8.828C476.69,137.287,472.735,141.241,467.862,141.241z"/>
	<rect x="459.034" y="194.207" style="fill:#294C2C;" width="52.966" height="52.966"/>
	<path style="fill:#294C2C;" d="M485.517,370.759h-26.483c-4.873,0-8.828-3.955-8.828-8.828s3.955-8.828,8.828-8.828h26.483
		c4.873,0,8.828,3.955,8.828,8.828S490.39,370.759,485.517,370.759z"/>
</g>
<g>
	<path style="fill:#F2ECBF;" d="M17.655,211.862H0v17.655h17.655c4.873,0,8.828-3.955,8.828-8.828
		C26.483,215.817,22.528,211.862,17.655,211.862z"/>
	<path style="fill:#F2ECBF;" d="M17.655,247.172H0v17.655h17.655c4.873,0,8.828-3.955,8.828-8.828S22.528,247.172,17.655,247.172z"
		/>
	<path style="fill:#F2ECBF;" d="M17.655,282.483H0v17.655h17.655c4.873,0,8.828-3.955,8.828-8.828
		C26.483,286.438,22.528,282.483,17.655,282.483z"/>
</g>
<g>
	<rect x="176.552" y="344.276" style="fill:#AFB6BB;" width="158.897" height="35.31"/>
	<rect x="114.759" y="167.724" style="fill:#AFB6BB;" width="35.31" height="158.897"/>
	<rect x="176.552" y="114.759" style="fill:#AFB6BB;" width="158.897" height="35.31"/>
	<rect x="361.931" y="167.724" style="fill:#AFB6BB;" width="35.31" height="158.897"/>
</g>
<g>
	<path style="fill:#294C2C;" d="M512,300.138h-52.966c-4.873,0-8.828,3.955-8.828,8.828v88.276c0,4.873,3.955,8.828,8.828,8.828
		s8.828-3.955,8.828-8.828v-79.448H512V300.138z"/>
	<path style="fill:#294C2C;" d="M512,123.586h-44.138c-4.873,0-8.828,3.955-8.828,8.828c0,4.873,3.955,8.828,8.828,8.828H512
		V123.586z"/>
</g>
<g>
</g>
<g>
</g>
<g>
</g>
<g>
</g>
<g>
</g>
<g>
</g>
<g>
</g>
<g>
</g>
<g>
</g>
<g>
</g>
<g>
</g>
<g>
</g>
<g>
</g>
<g>
</g>
<g>
</g>
</svg>
