<?xml version="1.0" encoding="iso-8859-1"?>
<!-- Generator: Adobe Illustrator 22.0.0, SVG Export Plug-In . SVG Version: 6.00 Build 0)  -->
<svg xmlns="http://www.w3.org/2000/svg" xmlns:xlink="http://www.w3.org/1999/xlink" version="1.1" x="0px" y="0px" viewBox="0 0 46 58" style="enable-background:new 0 0 46 58;" xml:space="preserve" width="512" height="512">
<g id="_x36_-Coding">
	<polygon style="fill:#57ABC1;" points="6,52 38,52 38,37 38,11 38,6 6,6  "/>
	<path style="fill:#EAEFF0;" d="M38,8H6V2.547C6,1.14,7.14,0,8.547,0h26.907C36.86,0,38,1.14,38,2.547V8z"/>
	<path style="fill:#EAEFF0;" d="M35.453,58H8.547C7.14,58,6,56.86,6,55.453V50h32v5.453C38,56.86,36.86,58,35.453,58z"/>
	<circle style="fill:#B8BEC3;" cx="22" cy="54" r="4"/>
	<path style="fill:#B8BEC3;" d="M22,5h-6c-0.552,0-1-0.447-1-1s0.448-1,1-1h6c0.552,0,1,0.447,1,1S22.552,5,22,5z"/>
	<path style="fill:#B8BEC3;" d="M28,5h-1c-0.552,0-1-0.447-1-1s0.448-1,1-1h1c0.552,0,1,0.447,1,1S28.552,5,28,5z"/>
	<rect y="21" style="fill:#EAEFF0;" width="46" height="24"/>
	<rect y="13" style="fill:#28384C;" width="46" height="8"/>
	<path style="fill:#EBBA16;" d="M12,18h-2c-0.552,0-1-0.448-1-1s0.448-1,1-1h2c0.552,0,1,0.448,1,1S12.552,18,12,18z"/>
	<path style="fill:#DD352E;" d="M6,18H4c-0.552,0-1-0.448-1-1s0.448-1,1-1h2c0.552,0,1,0.448,1,1S6.552,18,6,18z"/>
	<path style="fill:#23A24D;" d="M18,18h-2c-0.552,0-1-0.448-1-1s0.448-1,1-1h2c0.552,0,1,0.448,1,1S18.552,18,18,18z"/>
	<path style="fill:#DD352E;" d="M17,38c-0.256,0-0.512-0.098-0.707-0.293l-4-4c-0.391-0.391-0.391-1.023,0-1.414l4-4   c0.39-0.391,1.024-0.391,1.414,0c0.391,0.391,0.391,1.023,0,1.414L14.414,33l3.293,3.293c0.391,0.391,0.391,1.023,0,1.414   C17.512,37.902,17.256,38,17,38z"/>
	<path style="fill:#DD352E;" d="M29,38c-0.256,0-0.512-0.098-0.707-0.293c-0.391-0.391-0.391-1.023,0-1.414L31.586,33l-3.293-3.293   c-0.391-0.391-0.391-1.023,0-1.414c0.39-0.391,1.024-0.391,1.414,0l4,4c0.391,0.391,0.391,1.023,0,1.414l-4,4   C29.512,37.902,29.256,38,29,38z"/>
	<path style="fill:#DD352E;" d="M21,40c-0.105,0-0.212-0.017-0.316-0.052c-0.524-0.175-0.807-0.741-0.633-1.265l4-12   c0.175-0.523,0.743-0.807,1.265-0.632c0.524,0.175,0.807,0.741,0.633,1.265l-4,12C21.809,39.735,21.419,40,21,40z"/>
</g>

</svg>
