<svg height="512pt" viewBox="-35 0 512 512" width="512pt" xmlns="http://www.w3.org/2000/svg"><path d="m220.691406 512c158.894532-70.621094 220.6875-238.34375 220.6875-406.070312l-220.6875-105.929688-220.691406 105.929688c0 167.726562 61.792969 335.449218 220.691406 406.070312zm0 0" fill="#61b872"/><path d="m35.308594 132.414062c3.460937 92.355469 31.71875 257.667969 185.382812 335.449219 153.660156-77.78125 181.917969-243.09375 185.378906-335.449219l-185.378906-88.277343zm0 0" fill="#3d6f44"/><path d="m326.355469 247.171875c0 58.503906-47.425781 105.929687-105.929688 105.929687-58.503906 0-105.933593-47.425781-105.933593-105.929687s47.429687-105.929687 105.933593-105.929687c58.503907 0 105.929688 47.425781 105.929688 105.929687zm0 0" fill="#fff"/><path d="m247.171875 247.171875h-52.964844c-4.871093 0-8.828125-3.945313-8.828125-8.828125v-35.308594c0-19.472656 15.835938-35.3125 35.3125-35.3125 19.472656 0 35.308594 15.839844 35.308594 35.3125v35.308594c0 4.882812-3.953125 8.828125-8.828125 8.828125zm-44.136719-17.65625h35.308594v-26.480469c0-9.738281-7.917969-17.65625-17.652344-17.65625-9.738281 0-17.65625 7.917969-17.65625 17.65625zm0 0" fill="#afb6bb"/><path d="m176.550781 229.515625h88.277344v70.621094h-88.277344zm0 0" fill="#ebba16"/><path d="m220.691406 282.484375c-4.875 0-8.828125-3.949219-8.828125-8.828125v-17.65625c0-4.882812 3.953125-8.828125 8.828125-8.828125 4.871094 0 8.824219 3.945313 8.824219 8.828125v17.65625c0 4.878906-3.953125 8.828125-8.824219 8.828125zm0 0" fill="#28384c"/></svg>