<svg enable-background="new 0 0 59 59" height="512" viewBox="0 0 59 59" width="512" xmlns="http://www.w3.org/2000/svg"><circle cx="42" cy="17" fill="#7383bf" r="16"/><path d="m24 56h-22v-14.999c0-1.105.896-2.001 2.001-2.001h17.997c1.106 0 2.002.896 2.002 2.001z" fill="#e7eced"/><path d="m0 55h26v4h-26z" fill="#afb6bb"/><path d="m6 43h14v8h-14z" fill="#ebba16"/><g fill="#556080"><path d="m42 34c-9.374 0-17-7.626-17-17s7.626-17 17-17 17 7.626 17 17-7.626 17-17 17zm0-32c-8.271 0-15 6.729-15 15s6.729 15 15 15 15-6.729 15-15-6.729-15-15-15z"/><path d="m42 34c-5.047 0-9-7.468-9-17s3.953-17 9-17 9 7.468 9 17-3.953 17-9 17zm0-32c-3.794 0-7 6.869-7 15s3.206 15 7 15 7-6.869 7-15-3.206-15-7-15z"/><path d="m58 18h-32c-.552 0-1-.447-1-1s.448-1 1-1h32c.552 0 1 .447 1 1s-.448 1-1 1z"/><path d="m42 34c-.552 0-1-.447-1-1v-32c0-.553.448-1 1-1s1 .447 1 1v32c0 .553-.448 1-1 1z"/><path d="m42 12c-4.777 0-9.351-1.606-12.878-4.522-.206-.17-.334-.415-.359-.681-.024-.266.059-.529.231-.733 3.243-3.854 7.984-6.064 13.006-6.064s9.763 2.21 13.006 6.063c.172.204.255.468.231.733-.024.266-.153.511-.359.681-3.527 2.917-8.101 4.523-12.878 4.523zm-10.778-5.423c3.044 2.214 6.831 3.423 10.778 3.423s7.734-1.209 10.778-3.423c-2.822-2.921-6.695-4.577-10.778-4.577s-7.956 1.656-10.778 4.577z"/><path d="m42 34c-5.023 0-9.764-2.21-13.006-6.063-.172-.204-.255-.468-.231-.733.024-.266.153-.511.359-.681 3.527-2.917 8.101-4.523 12.878-4.523s9.351 1.606 12.878 4.522c.206.17.334.415.359.681.024.266-.059.529-.231.733-3.243 3.854-7.984 6.064-13.006 6.064zm-10.778-6.577c2.822 2.921 6.694 4.577 10.778 4.577 4.083 0 7.956-1.656 10.778-4.577-3.044-2.214-6.831-3.423-10.778-3.423-3.948 0-7.734 1.209-10.778 3.423z"/></g><path d="m13 36c-.552 0-1-.447-1-1v-18c0-.553.448-1 1-1h9c.552 0 1 .447 1 1s-.448 1-1 1h-8v17c0 .553-.448 1-1 1z" fill="#61b872"/><path d="m42 48h-14c-.552 0-1-.447-1-1s.448-1 1-1h13v-9c0-.553.448-1 1-1s1 .447 1 1v10c0 .553-.448 1-1 1z" fill="#61b872"/></svg>